<svg width="564.9323120117188px" height="121.39999999999999px" xmlns="http://www.w3.org/2000/svg" viewBox="-32.466156005859375 14.300000000000004 564.9323120117188 121.39999999999999" style="background: rgba(0, 0, 0, 0);" preserveAspectRatio="xMidYMid"><defs><filter id="editing-extrusion" x="-100%" y="-100%" width="300%" height="300%"><feFlood result="color1" flood-color="#444"></feFlood><feConvolveMatrix order="8,8" divisor="1" kernelMatrix="1 0 0 0 0 0 0 0 0 1 0 0 0 0 0 0 0 0 1 0 0 0 0 0 0 0 0 1 0 0 0 0 0 0 0 0 1 0 0 0 0 0 0 0 0 1 0 0 0 0 0 0 0 0 1 0 0 0 0 0 0 0 0 1" in="SourceAlpha" result="extrude"></feConvolveMatrix><feComposite in="color1" in2="extrude" result="comp-extrude" operator="in"></feComposite><feOffset dx="4" dy="4" in="comp-extrude" result="offset-extrude"></feOffset><feMerge><feMergeNode in="offset-extrude"></feMergeNode><feMergeNode in="SourceGraphic"></feMergeNode></feMerge></filter></defs><g filter="url(#editing-extrusion)"><g transform="translate(53.84087038040161, 102.84000015258789)"><path d="M-6.98 8.83L-6.98 8.83L-6.98 8.83Q-3.71 8.45-1.66 4.22L-1.66 4.22L-1.66 4.22Q0.45-0.06 2.37-9.92L2.37-9.92L8.58-42.24L22.46-42.24L16.26-9.92L16.26-9.92Q13.89 2.62 9.98 7.55L9.98 7.55L9.98 7.55Q7.94 10.11 5.34 11.14L5.34 11.14L5.34 11.14Q2.75 12.16-0.06 12.16L-0.06 12.16L-0.06 12.16Q-2.88 12.16-4.70 11.14L-4.70 11.14L-4.70 11.14Q-6.53 10.11-6.98 8.83ZM26.66-1.92L26.66-1.92L26.66-1.92Q25.15-3.58 24.48-6.21L24.48-6.21L24.48-6.21Q23.81-8.83 23.81-13.12L23.81-13.12L23.81-13.12Q23.81-17.41 25.28-21.31L25.28-21.31L25.28-21.31Q26.75-25.22 29.44-28.03L29.44-28.03L29.44-28.03Q34.94-33.92 44.03-33.92L44.03-33.92L44.03-33.92Q47.30-33.92 49.66-32.83L49.66-32.83L60.61-33.92L55.87-8.96L55.87-8.96Q55.68-8.19 55.68-6.78L55.68-6.78L55.68-6.78Q55.68-5.38 56.54-4.48L56.54-4.48L56.54-4.48Q57.41-3.58 58.69-3.46L58.69-3.46L58.69-3.46Q58.05-1.28 55.71 0L55.71 0L55.71 0Q53.38 1.28 50.75 1.28L50.75 1.28L50.75 1.28Q48.13 1.28 46.37 0.29L46.37 0.29L46.37 0.29Q44.61-0.70 44.10-2.37L44.10-2.37L44.10-2.37Q43.07-0.77 40.90 0.26L40.90 0.26L40.90 0.26Q38.72 1.28 35.81 1.28L35.81 1.28L35.81 1.28Q32.90 1.28 30.53 0.51L30.53 0.51L30.53 0.51Q28.16-0.26 26.66-1.92ZM40.16-27.90L40.16-27.90L40.16-27.90Q39.42-26.75 38.78-24.80L38.78-24.80L38.78-24.80Q38.14-22.85 37.09-17.63L37.09-17.63L37.09-17.63Q36.03-12.42 36.03-8.70L36.03-8.70L36.03-8.70Q36.03-4.99 36.61-3.90L36.61-3.90L36.61-3.90Q37.18-2.82 38.21-2.82L38.21-2.82L38.21-2.82Q40.26-2.82 41.76-4.77L41.76-4.77L41.76-4.77Q43.26-6.72 43.84-10.18L43.84-10.18L47.23-28.93L47.23-28.93Q45.89-30.08 44.32-30.08L44.32-30.08L44.32-30.08Q42.75-30.08 41.82-29.57L41.82-29.57L41.82-29.57Q40.90-29.06 40.16-27.90ZM110.14 1.28L110.14 1.28L110.14 1.28Q102.40 1.28 102.40-4.74L102.40-4.74L102.40-4.74Q102.40-7.36 103.52-12.45L103.52-12.45L103.52-12.45Q104.64-17.54 105.02-19.58L105.02-19.58L105.02-19.58Q105.92-24.26 105.92-25.73L105.92-25.73L105.92-25.73Q105.92-28.99 103.49-28.99L103.49-28.99L103.49-28.99Q101.89-28.99 100.35-26.78L100.35-26.78L100.35-26.78Q98.82-24.58 98.11-20.16L98.11-20.16L94.14 0L81.66 1.28L85.12-16.13L85.12-16.13Q85.70-19.01 86.21-22.27L86.21-22.27L86.21-22.27Q86.72-25.54 86.72-26.05L86.72-26.05L86.72-26.05Q86.72-28.99 84.54-28.99L84.54-28.99L84.54-28.99Q83.07-28.99 81.47-26.82L81.47-26.82L81.47-26.82Q79.87-24.64 78.98-20.16L78.98-20.16L75.07 0L62.46 1.28L69.18-32.64L79.62-33.92L78.53-27.46L78.53-27.46Q80.19-30.91 83.26-32.42L83.26-32.42L83.26-32.42Q86.34-33.92 91.14-33.92L91.14-33.92L91.14-33.92Q93.89-33.92 95.68-32.58L95.68-32.58L95.68-32.58Q97.47-31.23 98.05-29.06L98.05-29.06L98.05-29.06Q99.14-31.30 101.92-32.61L101.92-32.61L101.92-32.61Q104.70-33.92 108.13-33.92L108.13-33.92L108.13-33.92Q111.55-33.92 113.25-33.18L113.25-33.18L113.25-33.18Q114.94-32.45 115.97-31.23L115.97-31.23L115.97-31.23Q117.70-28.99 117.70-24.90L117.70-24.90L117.70-24.90Q117.70-20.86 115.97-12.48L115.97-12.48L115.97-12.48Q115.07-8.38 115.07-6.88L115.07-6.88L115.07-6.88Q115.07-5.38 115.94-4.48L115.94-4.48L115.94-4.48Q116.80-3.58 118.08-3.46L118.08-3.46L118.08-3.46Q117.44-1.28 115.23 0L115.23 0L115.23 0Q113.02 1.28 110.14 1.28ZM148.93-10.82L148.93-10.82L148.93-10.82Q150.53-9.73 150.53-7.33L150.53-7.33L150.53-7.33Q150.53-4.93 149.31-3.39L149.31-3.39L149.31-3.39Q148.10-1.86 146.11-0.83L146.11-0.83L146.11-0.83Q142.02 1.28 137.60 1.28L137.60 1.28L137.60 1.28Q133.18 1.28 130.59 0.32L130.59 0.32L130.59 0.32Q128-0.64 126.27-2.43L126.27-2.43L126.27-2.43Q122.88-5.82 122.88-12.03L122.88-12.03L122.88-12.03Q122.88-21.70 128.13-27.58L128.13-27.58L128.13-27.58Q133.76-33.92 143.55-33.92L143.55-33.92L143.55-33.92Q149.63-33.92 152.64-31.36L152.64-31.36L152.64-31.36Q154.88-29.44 154.88-26.30L154.88-26.30L154.88-26.30Q154.88-15.04 135.42-15.04L135.42-15.04L135.42-15.04Q135.17-13.38 135.17-11.97L135.17-11.97L135.17-11.97Q135.17-9.02 136.48-7.90L136.48-7.90L136.48-7.90Q137.79-6.78 140.22-6.78L140.22-6.78L140.22-6.78Q142.66-6.78 145.25-7.90L145.25-7.90L145.25-7.90Q147.84-9.02 148.93-10.82ZM135.87-17.79L135.87-17.79L135.87-17.79Q140.42-17.79 143.04-20.61L143.04-20.61L143.04-20.61Q145.66-23.30 145.66-27.58L145.66-27.58L145.66-27.58Q145.66-29.06 145.12-29.86L145.12-29.86L145.12-29.86Q144.58-30.66 143.49-30.66L143.49-30.66L143.49-30.66Q142.40-30.66 141.47-30.24L141.47-30.24L141.47-30.24Q140.54-29.82 139.58-28.42L139.58-28.42L139.58-28.42Q137.22-25.22 135.87-17.79ZM176.19-22.46L176.19-22.46L176.19-22.46Q177.09-24.83 177.09-26.88L177.09-26.88L177.09-26.88Q177.09-30.66 174.02-30.66L174.02-30.66L174.02-30.66Q172.42-30.66 171.10-29.22L171.10-29.22L171.10-29.22Q169.79-27.78 169.79-25.98L169.79-25.98L169.79-25.98Q169.79-24.70 170.82-23.68L170.82-23.68L170.82-23.68Q172.29-22.27 176.06-19.97L176.06-19.97L176.06-19.97Q179.84-17.66 181.28-15.78L181.28-15.78L181.28-15.78Q182.72-13.89 182.72-11.30L182.72-11.30L182.72-11.30Q182.72-8.70 181.47-6.34L181.47-6.34L181.47-6.34Q180.22-3.97 177.98-2.30L177.98-2.30L177.98-2.30Q173.18 1.28 165.50 1.28L165.50 1.28L165.50 1.28Q161.34 1.28 158.14-0.90L158.14-0.90L158.14-0.90Q154.94-3.01 154.94-5.50L154.94-5.50L154.94-5.50Q154.94-8 156.77-9.47L156.77-9.47L156.77-9.47Q158.59-10.94 161.28-10.94L161.28-10.94L161.28-10.94Q163.97-10.94 165.63-9.92L165.63-9.92L165.63-9.92Q164.80-7.81 164.80-6.40L164.80-6.40L164.80-6.40Q164.80-2.18 168.38-2.18L168.38-2.18L168.38-2.18Q169.92-2.18 170.94-3.14L170.94-3.14L170.94-3.14Q171.97-4.10 171.97-5.76L171.97-5.76L171.97-5.76Q171.97-9.02 166.46-12.48L166.46-12.48L166.46-12.48Q161.98-15.42 160.96-16.58L160.96-16.58L160.96-16.58Q159.23-18.62 159.23-21.18L159.23-21.18L159.23-21.18Q159.23-23.74 160.45-26.18L160.45-26.18L160.45-26.18Q161.66-28.61 163.90-30.34L163.90-30.34L163.90-30.34Q168.58-33.92 176.70-33.92L176.70-33.92L176.70-33.92Q180.86-33.92 183.33-32.26L183.33-32.26L183.33-32.26Q185.79-30.59 185.79-27.78L185.79-27.78L185.79-27.78Q185.79-24.96 184.10-23.36L184.10-23.36L184.10-23.36Q182.40-21.76 179.33-21.76L179.33-21.76L179.33-21.76Q177.22-21.76 176.19-22.46ZM226.30-29.57L226.30-29.57L226.30-29.57Q227.26-31.49 227.26-33.28L227.26-33.28L227.26-33.28Q227.26-35.07 227.07-36.06L227.07-36.06L227.07-36.06Q226.88-37.06 226.43-37.82L226.43-37.82L226.43-37.82Q225.47-39.49 223.55-39.49L223.55-39.49L223.55-39.49Q221.18-39.49 219.26-37.76L219.26-37.76L219.26-37.76Q217.22-35.97 217.22-33.15L217.22-33.15L217.22-33.15Q217.22-31.36 218.46-29.98L218.46-29.98L218.46-29.98Q219.71-28.61 221.63-27.33L221.63-27.33L221.63-27.33Q223.55-26.05 225.73-24.77L225.73-24.77L225.73-24.77Q227.90-23.49 229.82-21.95L229.82-21.95L229.82-21.95Q234.24-18.43 234.24-13.70L234.24-13.70L234.24-13.70Q234.24-10.50 232.54-7.78L232.54-7.78L232.54-7.78Q230.85-5.06 228.03-3.07L228.03-3.07L228.03-3.07Q221.89 1.28 213.76 1.28L213.76 1.28L213.76 1.28Q207.17 1.28 203.78-0.86L203.78-0.86L203.78-0.86Q200.38-3.01 200.38-6.27L200.38-6.27L200.38-6.27Q200.38-12.10 204.93-13.57L204.93-13.57L204.93-13.57Q206.21-14.02 208.16-14.02L208.16-14.02L208.16-14.02Q210.11-14.02 212.35-13.18L212.35-13.18L212.35-13.18Q211.33-10.56 211.33-8.19L211.33-8.19L211.33-8.19Q211.33-3.07 214.98-3.07L214.98-3.07L214.98-3.07Q217.34-3.07 219.30-4.80L219.30-4.80L219.30-4.80Q221.25-6.53 221.25-8.48L221.25-8.48L221.25-8.48Q221.25-10.43 220-11.84L220-11.84L220-11.84Q218.75-13.25 216.90-14.37L216.90-14.37L216.90-14.37Q215.04-15.49 212.90-16.58L212.90-16.58L212.90-16.58Q210.75-17.66 208.90-19.20L208.90-19.20L208.90-19.20Q204.54-22.72 204.54-28.35L204.54-28.35L204.54-28.35Q204.54-32 206.34-34.85L206.34-34.85L206.34-34.85Q208.13-37.70 211.01-39.62L211.01-39.62L211.01-39.62Q216.77-43.52 223.84-43.52L223.84-43.52L223.84-43.52Q230.91-43.52 234.34-41.41L234.34-41.41L234.34-41.41Q237.76-39.30 237.76-35.71L237.76-35.71L237.76-35.71Q237.76-32.58 235.33-30.59L235.33-30.59L235.33-30.59Q233.22-28.93 230.66-28.93L230.66-28.93L230.66-28.93Q228.10-28.93 226.30-29.57ZM286.85-10.69L286.85-10.69Q282.62-4.86 278.56-1.79L278.56-1.79L278.56-1.79Q274.50 1.28 270.30 1.28L270.30 1.28L270.30 1.28Q266.11 1.28 264.64 0.45L264.64 0.45L264.64-13.63L264.64-13.63Q260.99-3.90 254.46-0.13L254.46-0.13L254.46-0.13Q252.10 1.28 249.86 1.28L249.86 1.28L249.86 1.28Q245.57 1.28 243.71 0.45L243.71 0.45L243.71 0.45Q243.26-14.21 242.88-18.27L242.88-18.27L242.88-18.27Q242.50-22.34 242.18-24.83L242.18-24.83L242.18-24.83Q241.54-29.82 239.36-31.87L239.36-31.87L239.36-31.87Q242.11-33.92 245.95-33.92L245.95-33.92L245.95-33.92Q253.38-33.92 254.40-24.70L254.40-24.70L254.40-24.70Q254.66-22.53 254.66-20.22L254.66-20.22L254.66-20.22Q254.66-16.77 253.89-4.74L253.89-4.74L253.89-4.74Q255.42-5.44 257.06-7.97L257.06-7.97L257.06-7.97Q258.69-10.50 260.03-13.95L260.03-13.95L260.03-13.95Q263.04-21.95 263.04-28.86L263.04-28.86L263.04-28.86Q263.04-29.95 262.75-31.10L262.75-31.10L262.75-31.10Q262.46-32.26 262.14-32.58L262.14-32.58L262.14-32.58Q264.38-33.92 267.81-33.92L267.81-33.92L267.81-33.92Q271.23-33.92 272.86-31.58L272.86-31.58L272.86-31.58Q274.50-29.25 274.94-24.96L274.94-24.96L274.94-24.96Q275.46-19.52 275.46-16.26L275.46-16.26L275.46-16.26Q275.46-11.71 275.01-4.99L275.01-4.99L275.01-4.99Q278.21-7.30 280.83-14.85L280.83-14.85L280.83-14.85Q283.46-22.40 283.46-27.78L283.46-27.78L283.46-27.78Q283.46-30.14 283.07-31.55L283.07-31.55L283.07-31.55Q285.18-33.92 288.83-33.92L288.83-33.92L288.83-33.92Q291.07-33.92 292.70-32.70L292.70-32.70L292.70-32.70Q294.34-31.49 294.34-29.22L294.34-29.22L294.34-29.22Q294.34-26.94 293.66-24.51L293.66-24.51L293.66-24.51Q292.99-22.08 291.90-19.58L291.90-19.58L291.90-19.58Q289.79-14.59 286.85-10.69L286.85-10.69ZM321.98-10.82L321.98-10.82L321.98-10.82Q323.58-9.73 323.58-7.33L323.58-7.33L323.58-7.33Q323.58-4.93 322.37-3.39L322.37-3.39L322.37-3.39Q321.15-1.86 319.17-0.83L319.17-0.83L319.17-0.83Q315.07 1.28 310.66 1.28L310.66 1.28L310.66 1.28Q306.24 1.28 303.65 0.32L303.65 0.32L303.65 0.32Q301.06-0.64 299.33-2.43L299.33-2.43L299.33-2.43Q295.94-5.82 295.94-12.03L295.94-12.03L295.94-12.03Q295.94-21.70 301.18-27.58L301.18-27.58L301.18-27.58Q306.82-33.92 316.61-33.92L316.61-33.92L316.61-33.92Q322.69-33.92 325.70-31.36L325.70-31.36L325.70-31.36Q327.94-29.44 327.94-26.30L327.94-26.30L327.94-26.30Q327.94-15.04 308.48-15.04L308.48-15.04L308.48-15.04Q308.22-13.38 308.22-11.97L308.22-11.97L308.22-11.97Q308.22-9.02 309.54-7.90L309.54-7.90L309.54-7.90Q310.85-6.78 313.28-6.78L313.28-6.78L313.28-6.78Q315.71-6.78 318.30-7.90L318.30-7.90L318.30-7.90Q320.90-9.02 321.98-10.82ZM308.93-17.79L308.93-17.79L308.93-17.79Q313.47-17.79 316.10-20.61L316.10-20.61L316.10-20.61Q318.72-23.30 318.72-27.58L318.72-27.58L318.72-27.58Q318.72-29.06 318.18-29.86L318.18-29.86L318.18-29.86Q317.63-30.66 316.54-30.66L316.54-30.66L316.54-30.66Q315.46-30.66 314.53-30.24L314.53-30.24L314.53-30.24Q313.60-29.82 312.64-28.42L312.64-28.42L312.64-28.42Q310.27-25.22 308.93-17.79ZM332.90-1.92L332.90-1.92L332.90-1.92Q331.39-3.58 330.72-6.21L330.72-6.21L330.72-6.21Q330.05-8.83 330.05-13.12L330.05-13.12L330.05-13.12Q330.05-17.41 331.52-21.31L331.52-21.31L331.52-21.31Q332.99-25.22 335.68-28.03L335.68-28.03L335.68-28.03Q341.18-33.92 350.27-33.92L350.27-33.92L350.27-33.92Q353.54-33.92 355.90-32.83L355.90-32.83L366.85-33.92L362.11-8.96L362.11-8.96Q361.92-8.19 361.92-6.78L361.92-6.78L361.92-6.78Q361.92-5.38 362.78-4.48L362.78-4.48L362.78-4.48Q363.65-3.58 364.93-3.46L364.93-3.46L364.93-3.46Q364.29-1.28 361.95 0L361.95 0L361.95 0Q359.62 1.28 356.99 1.28L356.99 1.28L356.99 1.28Q354.37 1.28 352.61 0.29L352.61 0.29L352.61 0.29Q350.85-0.70 350.34-2.37L350.34-2.37L350.34-2.37Q349.31-0.77 347.14 0.26L347.14 0.26L347.14 0.26Q344.96 1.28 342.05 1.28L342.05 1.28L342.05 1.28Q339.14 1.28 336.77 0.51L336.77 0.51L336.77 0.51Q334.40-0.26 332.90-1.92ZM346.40-27.90L346.40-27.90L346.40-27.90Q345.66-26.75 345.02-24.80L345.02-24.80L345.02-24.80Q344.38-22.85 343.33-17.63L343.33-17.63L343.33-17.63Q342.27-12.42 342.27-8.70L342.27-8.70L342.27-8.70Q342.27-4.99 342.85-3.90L342.85-3.90L342.85-3.90Q343.42-2.82 344.45-2.82L344.45-2.82L344.45-2.82Q346.50-2.82 348-4.77L348-4.77L348-4.77Q349.50-6.72 350.08-10.18L350.08-10.18L353.47-28.93L353.47-28.93Q352.13-30.08 350.56-30.08L350.56-30.08L350.56-30.08Q348.99-30.08 348.06-29.57L348.06-29.57L348.06-29.57Q347.14-29.06 346.40-27.90ZM371.33-6.40L371.33-6.40L371.33-6.40Q371.33-8.13 372.22-12.48L372.22-12.48L375.62-29.76L371.84-29.76L372.10-31.68L372.10-31.68Q379.78-33.98 387.20-39.62L387.20-39.62L390.27-39.62L388.74-32.64L393.73-32.64L393.15-29.76L388.22-29.76L384.96-12.48L384.96-12.48Q384.13-8.51 384.13-7.17L384.13-7.17L384.13-7.17Q384.13-4.10 386.82-3.46L386.82-3.46L386.82-3.46Q386.18-1.28 383.87 0L383.87 0L383.87 0Q381.57 1.28 378.30 1.28L378.30 1.28L378.30 1.28Q375.04 1.28 373.18-0.77L373.18-0.77L373.18-0.77Q371.33-2.82 371.33-6.40Z" fill="#ccc"></path></g></g><style>text {
  font-size: 64px;
  font-family: Arial Black;
  dominant-baseline: central;
  text-anchor: middle;
}</style></svg>