<svg version="1.1" id="Layer_1" xmlns="http://www.w3.org/2000/svg" xmlns:xlink="http://www.w3.org/1999/xlink" x="0px" y="0px"
	 width="100%" viewBox="0 0 500 500" enable-background="new 0 0 500 500" xml:space="preserve">
<path fill="#000000" opacity="1.000000" stroke="none" 
	d="
M218.000000,501.000000 
	C145.333344,501.000000 73.166702,501.000000 1.000039,501.000000 
	C1.000026,334.333405 1.000026,167.666779 1.000013,1.000128 
	C167.666565,1.000085 334.333130,1.000085 500.999756,1.000043 
	C500.999847,167.666534 500.999847,334.333069 500.999939,500.999817 
	C406.833344,501.000000 312.666656,501.000000 218.000000,501.000000 
M187.460754,270.014221 
	C184.794815,270.013550 182.096115,270.278076 179.470184,269.953613 
	C174.892395,269.387878 173.865295,271.393036 173.914688,275.639252 
	C174.116257,292.965302 174.047256,310.295380 173.953766,327.623260 
	C173.937210,330.693909 173.654984,333.841370 172.925156,336.813293 
	C171.505692,342.593475 167.482880,346.123383 161.705490,346.914276 
	C156.098511,347.681854 150.907532,346.249908 146.582932,341.766632 
	C153.377792,339.312103 156.799896,334.201385 155.940369,327.888550 
	C155.042999,321.297791 150.983780,318.598572 145.758621,318.079712 
	C141.275589,317.634521 135.703217,321.635681 134.990234,325.392273 
	C132.939774,336.195740 138.988602,346.938416 149.717346,349.826721 
	C155.617798,351.415161 162.101837,352.421082 168.094101,351.724030 
	C177.883728,350.585266 187.600052,347.271301 192.372894,337.740509 
	C195.381287,331.733032 197.313110,324.697479 197.747620,317.994751 
	C198.575821,305.218781 198.038437,292.350677 197.970581,279.521332 
	C197.912460,268.532013 199.438095,270.142517 187.460754,270.014221 
M270.578369,215.066956 
	C271.691010,219.585281 272.656677,224.148972 274.027161,228.587677 
	C274.340942,229.603836 276.042450,230.860748 277.116943,230.871750 
	C291.795898,231.022232 306.476898,230.973099 321.157410,230.973099 
	C315.287567,228.042587 309.283142,225.962463 303.239014,224.004883 
	C282.820343,217.391724 282.454926,198.267166 290.342102,186.542328 
	C295.140381,179.409378 302.821472,176.414520 311.457733,174.770538 
	C326.606384,171.886795 342.043579,177.566086 349.794159,190.099945 
	C353.480988,196.062042 354.911224,203.397934 357.597839,210.016464 
	C358.212982,211.531860 359.793396,212.655441 360.929565,213.959351 
	C361.596954,212.106323 362.794678,210.265839 362.838867,208.398087 
	C363.019318,200.771774 362.931122,193.135437 362.777710,185.506104 
	C362.659882,179.647537 364.445770,173.553467 360.737396,166.705078 
	C358.090027,169.399429 355.385223,171.132294 354.192017,173.596939 
	C352.222687,177.664749 350.093292,177.385193 346.864594,175.443573 
	C333.958069,167.682007 319.848267,167.390320 305.751984,170.178635 
	C293.991180,172.504990 284.599152,178.853104 277.782074,189.329681 
	C272.701874,197.137039 271.292664,205.609589 270.578369,215.066956 
M189.803726,171.004242 
	C188.714844,171.330719 187.628342,171.930923 186.536682,171.940506 
	C177.537979,172.019363 168.538330,171.990189 159.538956,171.985107 
	C159.211594,171.984924 158.870651,171.811066 158.559219,171.861450 
	C156.729218,172.157593 154.875854,172.392456 153.105972,172.907669 
	C152.748383,173.011765 152.441193,174.786499 152.574692,174.852463 
	C154.225784,175.668564 155.938553,176.819305 157.682404,176.902786 
	C163.087631,177.161545 168.513092,176.997421 174.160950,176.997421 
	C174.160950,195.349411 174.160950,212.964584 174.160950,231.139816 
	C180.027969,231.139816 185.711060,230.593826 191.238770,231.286942 
	C197.269623,232.043152 197.983429,232.000778 197.987442,226.294708 
	C197.998230,210.963089 197.992981,195.631454 197.982849,180.299835 
	C197.980789,177.201157 198.127319,175.186523 202.503098,176.641602 
	C205.661346,177.691833 209.425415,177.058884 212.906525,176.898972 
	C213.743179,176.860535 215.095215,175.798737 215.196930,175.066757 
	C215.327621,174.126328 214.701630,172.548294 213.925568,172.131653 
	C212.555511,171.396088 210.830338,171.061661 209.245255,171.033005 
	C203.084854,170.921661 196.921112,170.996613 189.803726,171.004242 
M367.575531,295.906219 
	C368.718292,288.532593 369.898468,281.164459 370.984528,273.782501 
	C371.392731,271.007965 370.046539,269.873596 367.245270,269.963287 
	C363.085785,270.096405 358.918945,269.991425 354.755310,270.009979 
	C353.641876,270.014923 352.528809,270.100342 351.415558,270.148834 
	C351.772217,271.456970 351.789856,273.015381 352.540802,274.032410 
	C357.248657,280.408417 358.079437,287.884857 356.768036,295.047607 
	C352.799652,316.722565 330.851349,328.962402 309.898346,323.492310 
	C289.774323,318.238586 278.876038,304.225403 272.903107,285.283966 
	C272.394745,283.671844 270.687500,282.437775 269.537170,281.028076 
	C268.693970,282.540222 267.143951,284.040894 267.119263,285.566284 
	C266.919647,297.882416 266.911194,310.204559 267.094208,322.521149 
	C267.127289,324.747528 268.305756,326.956909 268.955444,329.174164 
	C269.478577,329.278076 270.001740,329.382019 270.524872,329.485931 
	C274.162537,324.681213 277.800201,319.876526 281.435883,315.074432 
	C314.583008,342.282532 355.246643,329.128448 367.575531,295.906219 
M292.002808,246.557022 
	C291.792206,245.421524 291.581604,244.286026 291.371002,243.150528 
	C289.593445,243.987366 287.815887,244.824219 285.848755,245.750305 
	C282.611755,241.424408 280.960846,241.525360 277.845367,247.081238 
	C277.541809,246.667084 277.069489,246.321487 277.062897,245.967239 
	C277.001007,242.634171 274.676788,242.586563 272.613159,243.377884 
	C272.017700,243.606201 271.994629,246.196686 272.261993,247.598785 
	C272.647766,249.621796 273.325470,251.660690 274.284210,253.478943 
	C274.979401,254.797394 276.529755,256.814972 277.347229,256.660492 
	C278.714935,256.402039 279.836792,254.692719 280.989685,253.522705 
	C281.440063,253.065659 281.694763,252.415833 282.969574,250.332047 
	C282.488342,256.387756 285.236755,256.348083 288.271332,255.773621 
	C289.517883,252.917053 290.733887,250.130493 292.002808,246.557022 
M184.006958,245.907242 
	C184.644302,249.569672 182.595261,253.709869 185.224686,256.704010 
	C188.820786,255.468628 191.786026,254.449966 193.864624,253.735901 
	C195.338669,254.974350 196.538971,255.982803 197.739273,256.991272 
	C198.485382,255.585785 199.622406,254.248810 199.883560,252.758347 
	C200.251282,250.659607 200.154068,248.424316 199.890564,246.292526 
	C199.751816,245.170029 199.037399,243.510178 198.217438,243.251495 
	C197.397568,242.992828 195.881226,243.952774 195.101471,244.783401 
	C193.876663,246.088104 193.013748,247.732529 191.893250,249.387146 
	C190.457047,247.184814 189.484650,245.308945 188.152466,243.738220 
	C185.981079,241.178024 184.348572,241.259109 184.006958,245.907242 
M217.040863,250.785873 
	C217.383469,248.323822 217.726074,245.861771 218.124725,242.997086 
	C215.349442,242.997086 213.033447,243.100006 210.730469,242.970825 
	C207.910446,242.812622 206.782104,244.011887 206.977341,246.806915 
	C207.127899,248.962341 206.759018,251.176346 207.085358,253.292709 
	C207.844955,258.218719 211.859558,257.141846 214.920120,256.860596 
	C218.308731,256.549194 218.406830,254.191132 217.040863,250.785873 
M299.402985,244.078644 
	C299.278778,246.872421 298.867706,249.694656 299.141052,252.448975 
	C299.297638,254.027054 300.566193,255.494781 301.334106,257.012207 
	C304.065430,255.571899 308.515411,258.513550 310.401764,253.481201 
	C308.483704,253.143814 307.019775,252.886322 304.163177,252.383850 
	C306.679535,252.070480 307.759521,251.936005 308.670441,251.822556 
	C309.093201,248.876282 309.480652,246.175949 309.951782,242.892441 
	C306.556915,243.081116 303.312439,243.261444 299.402985,244.078644 
M226.039780,244.400909 
	C226.135101,246.766373 226.230423,249.131836 226.325745,251.497314 
	C226.433685,251.463196 226.541611,251.429077 226.649551,251.394958 
	C226.649551,252.948822 226.649551,254.502670 226.649551,256.056519 
	C228.946274,256.056519 231.437973,256.592682 233.466522,255.855087 
	C234.681030,255.413498 235.470490,253.060013 235.911942,251.420685 
	C236.481689,249.304901 233.100601,247.065018 235.946136,244.850739 
	C235.245041,244.244537 234.536880,243.117203 233.844116,243.126617 
	C231.447250,243.159134 229.055740,243.587341 226.039780,244.400909 
M261.871948,256.683624 
	C266.417908,253.836716 266.314697,251.317139 262.353760,247.961960 
	C263.082886,246.318451 263.670197,244.994598 264.547577,243.016968 
	C261.885803,243.016968 260.248047,243.046799 258.611694,243.010956 
	C254.820099,242.927948 253.785156,245.191971 254.001984,248.451660 
	C254.158600,250.805984 254.434006,253.152405 254.717224,256.144806 
	C256.338593,256.357056 258.712067,256.667786 261.871948,256.683624 
M318.973816,247.716965 
	C318.027679,250.340515 317.081543,252.964050 315.879608,256.296936 
	C320.821960,255.752792 325.562744,251.952560 329.299957,257.754761 
	C332.550110,252.868835 328.539734,250.366150 327.565247,247.318039 
	C327.049194,245.703995 325.449371,244.436432 324.338806,243.012451 
	C322.673462,244.348587 321.008148,245.684723 318.973816,247.716965 
M164.271255,256.990265 
	C168.192230,252.037750 173.136765,256.047791 177.879166,256.371552 
	C176.374451,252.200638 175.616562,248.667145 173.831161,245.766037 
	C172.961441,244.352768 170.173584,244.119980 168.253967,243.352844 
	C166.654526,247.898712 165.055069,252.444595 164.271255,256.990265 
M156.230637,247.190002 
	C156.252380,242.531326 156.027832,242.425369 147.148087,243.546661 
	C148.387985,244.682404 149.295578,245.234833 149.801819,246.039719 
	C150.663254,247.409348 151.578232,248.891907 151.808334,250.426331 
	C151.881241,250.912521 149.825638,251.688370 148.778610,252.383636 
	C148.189606,252.774734 147.356339,253.186142 147.204391,253.744019 
	C147.033951,254.369919 147.357544,255.701828 147.727310,255.806793 
	C149.554001,256.325378 151.598206,257.081635 153.303360,256.669281 
	C154.428085,256.397308 155.474945,254.396622 155.889481,252.975388 
	C156.337509,251.439316 156.009171,249.676819 156.230637,247.190002 
M336.069550,245.169754 
	C337.300415,246.036438 338.531311,246.903107 339.653381,247.693161 
	C340.053589,250.835251 340.453735,253.976669 340.963226,257.976654 
	C346.845398,254.004700 341.294647,245.671432 350.005737,244.852295 
	C349.564728,244.144241 349.123718,243.436188 348.682709,242.728134 
	C344.467102,243.248886 340.251495,243.769638 336.069550,245.169754 
z"/>
<path fill="#D8D8D8" opacity="1.000000" stroke="none" 
	d="
M187.948608,270.014343 
	C199.438095,270.142517 197.912460,268.532013 197.970581,279.521332 
	C198.038437,292.350677 198.575821,305.218781 197.747620,317.994751 
	C197.313110,324.697479 195.381287,331.733032 192.372894,337.740509 
	C187.600052,347.271301 177.883728,350.585266 168.094101,351.724030 
	C162.101837,352.421082 155.617798,351.415161 149.717346,349.826721 
	C138.988602,346.938416 132.939774,336.195740 134.990234,325.392273 
	C135.703217,321.635681 141.275589,317.634521 145.758621,318.079712 
	C150.983780,318.598572 155.042999,321.297791 155.940369,327.888550 
	C156.799896,334.201385 153.377792,339.312103 146.582932,341.766632 
	C150.907532,346.249908 156.098511,347.681854 161.705490,346.914276 
	C167.482880,346.123383 171.505692,342.593475 172.925156,336.813293 
	C173.654984,333.841370 173.937210,330.693909 173.953766,327.623260 
	C174.047256,310.295380 174.116257,292.965302 173.914688,275.639252 
	C173.865295,271.393036 174.892395,269.387878 179.470184,269.953613 
	C182.096115,270.278076 184.794815,270.013550 187.948608,270.014343 
z"/>
<path fill="#D8D8D8" opacity="1.000000" stroke="none" 
	d="
M270.316376,214.712280 
	C271.292664,205.609589 272.701874,197.137039 277.782074,189.329681 
	C284.599152,178.853104 293.991180,172.504990 305.751984,170.178635 
	C319.848267,167.390320 333.958069,167.682007 346.864594,175.443573 
	C350.093292,177.385193 352.222687,177.664749 354.192017,173.596939 
	C355.385223,171.132294 358.090027,169.399429 360.737396,166.705078 
	C364.445770,173.553467 362.659882,179.647537 362.777710,185.506104 
	C362.931122,193.135437 363.019318,200.771774 362.838867,208.398087 
	C362.794678,210.265839 361.596954,212.106323 360.929565,213.959351 
	C359.793396,212.655441 358.212982,211.531860 357.597839,210.016464 
	C354.911224,203.397934 353.480988,196.062042 349.794159,190.099945 
	C342.043579,177.566086 326.606384,171.886795 311.457733,174.770538 
	C302.821472,176.414520 295.140381,179.409378 290.342102,186.542328 
	C282.454926,198.267166 282.820343,217.391724 303.239014,224.004883 
	C309.283142,225.962463 315.287567,228.042587 321.157410,230.973099 
	C306.476898,230.973099 291.795898,231.022232 277.116943,230.871750 
	C276.042450,230.860748 274.340942,229.603836 274.027161,228.587677 
	C272.656677,224.148972 271.691010,219.585281 270.316376,214.712280 
z"/>
<path fill="#D8D8D8" opacity="1.000000" stroke="none" 
	d="
M190.281158,171.003235 
	C196.921112,170.996613 203.084854,170.921661 209.245255,171.033005 
	C210.830338,171.061661 212.555511,171.396088 213.925568,172.131653 
	C214.701630,172.548294 215.327621,174.126328 215.196930,175.066757 
	C215.095215,175.798737 213.743179,176.860535 212.906525,176.898972 
	C209.425415,177.058884 205.661346,177.691833 202.503098,176.641602 
	C198.127319,175.186523 197.980789,177.201157 197.982849,180.299835 
	C197.992981,195.631454 197.998230,210.963089 197.987442,226.294708 
	C197.983429,232.000778 197.269623,232.043152 191.238770,231.286942 
	C185.711060,230.593826 180.027969,231.139816 174.160950,231.139816 
	C174.160950,212.964584 174.160950,195.349411 174.160950,176.997421 
	C168.513092,176.997421 163.087631,177.161545 157.682404,176.902786 
	C155.938553,176.819305 154.225784,175.668564 152.574692,174.852463 
	C152.441193,174.786499 152.748383,173.011765 153.105972,172.907669 
	C154.875854,172.392456 156.729218,172.157593 158.559219,171.861450 
	C158.870651,171.811066 159.211594,171.984924 159.538956,171.985107 
	C168.538330,171.990189 177.537979,172.019363 186.536682,171.940506 
	C187.628342,171.930923 188.714844,171.330719 190.281158,171.003235 
z"/>
<path fill="#D7D7D7" opacity="1.000000" stroke="none" 
	d="
M367.312988,296.214935 
	C355.246643,329.128448 314.583008,342.282532 281.435883,315.074432 
	C277.800201,319.876526 274.162537,324.681213 270.524872,329.485931 
	C270.001740,329.382019 269.478577,329.278076 268.955444,329.174164 
	C268.305756,326.956909 267.127289,324.747528 267.094208,322.521149 
	C266.911194,310.204559 266.919647,297.882416 267.119263,285.566284 
	C267.143951,284.040894 268.693970,282.540222 269.537170,281.028076 
	C270.687500,282.437775 272.394745,283.671844 272.903107,285.283966 
	C278.876038,304.225403 289.774323,318.238586 309.898346,323.492310 
	C330.851349,328.962402 352.799652,316.722565 356.768036,295.047607 
	C358.079437,287.884857 357.248657,280.408417 352.540802,274.032410 
	C351.789856,273.015381 351.772217,271.456970 351.415558,270.148834 
	C352.528809,270.100342 353.641876,270.014923 354.755310,270.009979 
	C358.918945,269.991425 363.085785,270.096405 367.245270,269.963287 
	C370.046539,269.873596 371.392731,271.007965 370.984528,273.782501 
	C369.898468,281.164459 368.718292,288.532593 367.312988,296.214935 
z"/>
<path fill="#D1D2D2" opacity="1.000000" stroke="none" 
	d="
M291.976349,246.950470 
	C290.733887,250.130493 289.517883,252.917053 288.271332,255.773621 
	C285.236755,256.348083 282.488342,256.387756 282.969574,250.332047 
	C281.694763,252.415833 281.440063,253.065659 280.989685,253.522705 
	C279.836792,254.692719 278.714935,256.402039 277.347229,256.660492 
	C276.529755,256.814972 274.979401,254.797394 274.284210,253.478943 
	C273.325470,251.660690 272.647766,249.621796 272.261993,247.598785 
	C271.994629,246.196686 272.017700,243.606201 272.613159,243.377884 
	C274.676788,242.586563 277.001007,242.634171 277.062897,245.967239 
	C277.069489,246.321487 277.541809,246.667084 277.845367,247.081238 
	C280.960846,241.525360 282.611755,241.424408 285.848755,245.750305 
	C287.815887,244.824219 289.593445,243.987366 291.371002,243.150528 
	C291.581604,244.286026 291.792206,245.421524 291.976349,246.950470 
z"/>
<path fill="#D3D4D4" opacity="1.000000" stroke="none" 
	d="
M184.009094,245.469070 
	C184.348572,241.259109 185.981079,241.178024 188.152466,243.738220 
	C189.484650,245.308945 190.457047,247.184814 191.893250,249.387146 
	C193.013748,247.732529 193.876663,246.088104 195.101471,244.783401 
	C195.881226,243.952774 197.397568,242.992828 198.217438,243.251495 
	C199.037399,243.510178 199.751816,245.170029 199.890564,246.292526 
	C200.154068,248.424316 200.251282,250.659607 199.883560,252.758347 
	C199.622406,254.248810 198.485382,255.585785 197.739273,256.991272 
	C196.538971,255.982803 195.338669,254.974350 193.864624,253.735901 
	C191.786026,254.449966 188.820786,255.468628 185.224686,256.704010 
	C182.595261,253.709869 184.644302,249.569672 184.009094,245.469070 
z"/>
<path fill="#D1D2D2" opacity="1.000000" stroke="none" 
	d="
M217.034790,251.186966 
	C218.406830,254.191132 218.308731,256.549194 214.920120,256.860596 
	C211.859558,257.141846 207.844955,258.218719 207.085358,253.292709 
	C206.759018,251.176346 207.127899,248.962341 206.977341,246.806915 
	C206.782104,244.011887 207.910446,242.812622 210.730469,242.970825 
	C213.033447,243.100006 215.349442,242.997086 218.124725,242.997086 
	C217.726074,245.861771 217.383469,248.323822 217.034790,251.186966 
z"/>
<path fill="#D1D2D2" opacity="1.000000" stroke="none" 
	d="
M299.735474,243.760208 
	C303.312439,243.261444 306.556915,243.081116 309.951782,242.892441 
	C309.480652,246.175949 309.093201,248.876282 308.670441,251.822556 
	C307.759521,251.936005 306.679535,252.070480 304.163177,252.383850 
	C307.019775,252.886322 308.483704,253.143814 310.401764,253.481201 
	C308.515411,258.513550 304.065430,255.571899 301.334106,257.012207 
	C300.566193,255.494781 299.297638,254.027054 299.141052,252.448975 
	C298.867706,249.694656 299.278778,246.872421 299.735474,243.760208 
z"/>
<path fill="#D1D2D2" opacity="1.000000" stroke="none" 
	d="
M226.350983,244.132919 
	C229.055740,243.587341 231.447250,243.159134 233.844116,243.126617 
	C234.536880,243.117203 235.245041,244.244537 235.946136,244.850739 
	C233.100601,247.065018 236.481689,249.304901 235.911942,251.420685 
	C235.470490,253.060013 234.681030,255.413498 233.466522,255.855087 
	C231.437973,256.592682 228.946274,256.056519 226.649551,256.056519 
	C226.649551,254.502670 226.649551,252.948822 226.649551,251.394958 
	C226.541611,251.429077 226.433685,251.463196 226.325745,251.497314 
	C226.230423,249.131836 226.135101,246.766373 226.350983,244.132919 
z"/>
<path fill="#D1D2D2" opacity="1.000000" stroke="none" 
	d="
M261.478760,256.831055 
	C258.712067,256.667786 256.338593,256.357056 254.717224,256.144806 
	C254.434006,253.152405 254.158600,250.805984 254.001984,248.451660 
	C253.785156,245.191971 254.820099,242.927948 258.611694,243.010956 
	C260.248047,243.046799 261.885803,243.016968 264.547577,243.016968 
	C263.670197,244.994598 263.082886,246.318451 262.353760,247.961960 
	C266.314697,251.317139 266.417908,253.836716 261.478760,256.831055 
z"/>
<path fill="#D1D2D2" opacity="1.000000" stroke="none" 
	d="
M319.158325,247.368927 
	C321.008148,245.684723 322.673462,244.348587 324.338806,243.012451 
	C325.449371,244.436432 327.049194,245.703995 327.565247,247.318039 
	C328.539734,250.366150 332.550110,252.868835 329.299957,257.754761 
	C325.562744,251.952560 320.821960,255.752792 315.879608,256.296936 
	C317.081543,252.964050 318.027679,250.340515 319.158325,247.368927 
z"/>
<path fill="#D1D2D2" opacity="1.000000" stroke="none" 
	d="
M163.863434,256.990356 
	C165.055069,252.444595 166.654526,247.898712 168.253967,243.352844 
	C170.173584,244.119980 172.961441,244.352768 173.831161,245.766037 
	C175.616562,248.667145 176.374451,252.200638 177.879166,256.371552 
	C173.136765,256.047791 168.192230,252.037750 163.863434,256.990356 
z"/>
<path fill="#D1D2D2" opacity="1.000000" stroke="none" 
	d="
M156.125061,247.601532 
	C156.009171,249.676819 156.337509,251.439316 155.889481,252.975388 
	C155.474945,254.396622 154.428085,256.397308 153.303360,256.669281 
	C151.598206,257.081635 149.554001,256.325378 147.727310,255.806793 
	C147.357544,255.701828 147.033951,254.369919 147.204391,253.744019 
	C147.356339,253.186142 148.189606,252.774734 148.778610,252.383636 
	C149.825638,251.688370 151.881241,250.912521 151.808334,250.426331 
	C151.578232,248.891907 150.663254,247.409348 149.801819,246.039719 
	C149.295578,245.234833 148.387985,244.682404 147.148087,243.546661 
	C156.027832,242.425369 156.252380,242.531326 156.125061,247.601532 
z"/>
<path fill="#D3D4D4" opacity="1.000000" stroke="none" 
	d="
M336.052734,244.730072 
	C340.251495,243.769638 344.467102,243.248886 348.682709,242.728134 
	C349.123718,243.436188 349.564728,244.144241 350.005737,244.852295 
	C341.294647,245.671432 346.845398,254.004700 340.963226,257.976654 
	C340.453735,253.976669 340.053589,250.835251 339.653381,247.693161 
	C338.531311,246.903107 337.300415,246.036438 336.052734,244.730072 
z"/>
</svg>